<svg width="262" height="103" viewBox="0 0 262 103" fill="none" xmlns="http://www.w3.org/2000/svg">
<path d="M36.4219 65.2188L37.7812 61.8438H49.3125L50.6719 65.2188H36.4219ZM33.7969 71.9688L35.1094 68.5938H51.9375L53.3906 71.9688H33.7969ZM31.1719 78.7188L32.4844 75.3438H54.6094L56.0156 78.7188H31.1719ZM3.75 88H0.09375L30.7969 10.375H34.4531L65.1094 88H61.5L32.625 14.9219L3.75 88ZM33.0469 22.9375L34.9688 27.25L10.9688 88H7.35938L33.0469 22.9375ZM36.7969 31.8438L38.5781 36.4844L18.2812 88H14.625L36.7969 31.8438ZM40.3594 41.125L42.1406 45.8594L25.5 88H21.8906L40.3594 41.125ZM86.9062 88H83.25L52.5938 10.375H56.2031L86.9062 88ZM48.9375 10.375L79.6406 88H76.0312L45.3281 10.375H48.9375ZM41.6719 10.375L72.375 88H68.7188L38.0625 10.375H41.6719Z" fill="white"/>
<path d="M127.422 65.2188L128.781 61.8438H140.312L141.672 65.2188H127.422ZM124.797 71.9688L126.109 68.5938H142.938L144.391 71.9688H124.797ZM122.172 78.7188L123.484 75.3438H145.609L147.016 78.7188H122.172ZM94.75 88H91.0938L121.797 10.375H125.453L156.109 88H152.5L123.625 14.9219L94.75 88ZM124.047 22.9375L125.969 27.25L101.969 88H98.3594L124.047 22.9375ZM127.797 31.8438L129.578 36.4844L109.281 88H105.625L127.797 31.8438ZM131.359 41.125L133.141 45.8594L116.5 88H112.891L131.359 41.125ZM177.906 88H174.25L143.594 10.375H147.203L177.906 88ZM139.938 10.375L170.641 88H167.031L136.328 10.375H139.938ZM132.672 10.375L163.375 88H159.719L129.062 10.375H132.672Z" fill="white"/>
<path d="M213.297 88H209.922V10.375H213.297V88ZM206.547 88H203.172V10.375H206.547V88ZM199.797 88H196.422V10.375H199.797V88ZM193.047 88H189.672V10.375H193.047V88ZM237.953 49.1875L257.781 10.375H261.531L241.703 49.1875L261.531 88H257.781L237.953 49.1875ZM230.406 49.1875L250.234 10.375H253.984L234.156 49.1875L253.984 88H250.234L230.406 49.1875ZM222.859 49.1875L242.688 10.375H246.438L226.609 49.1875L246.438 88H242.688L222.859 49.1875ZM215.266 49.1875L235.141 10.375H238.891L219.016 49.1875L238.891 88H235.141L215.266 49.1875Z" fill="white"/>
<rect x="9" y="51" width="69" height="12" fill="#D9D9D9"/>
<path d="M20.6542 60V59.84L21.2942 59.51L23.8542 53.35H24.3042L26.8242 59.48L27.4942 59.84V60H25.0142V59.84L25.8942 59.5L25.1442 57.65H22.7142L21.9742 59.5L22.8142 59.84V60H20.6542ZM22.9442 57.1H24.9242L23.9342 54.64L22.9442 57.1ZM28.4742 60V59.84L29.2742 59.44V53.96L28.4742 53.56V53.4H31.0542C31.7542 53.4 32.3042 53.5467 32.7042 53.84C33.1109 54.1267 33.3142 54.5233 33.3142 55.03C33.3142 55.4033 33.1876 55.74 32.9342 56.04C32.6809 56.3333 32.3442 56.5567 31.9242 56.71L33.8242 59.48L34.4842 59.84V60H33.0442L31.1042 56.97H30.1742V59.43L30.9242 59.84V60H28.4742ZM30.8242 53.95H30.1742V56.42H30.8842C31.3042 56.42 31.6509 56.3033 31.9242 56.07C32.2042 55.83 32.3442 55.5267 32.3442 55.16C32.3442 54.7867 32.2076 54.4933 31.9342 54.28C31.6609 54.06 31.2909 53.95 30.8242 53.95ZM38.4655 60.1C37.9855 60.1 37.5422 60.0167 37.1355 59.85C36.7355 59.6767 36.3855 59.44 36.0855 59.14C35.7855 58.8333 35.5522 58.4733 35.3855 58.06C35.2189 57.6467 35.1355 57.1933 35.1355 56.7C35.1355 56.2067 35.2189 55.7533 35.3855 55.34C35.5522 54.9267 35.7855 54.57 36.0855 54.27C36.3855 53.9633 36.7355 53.7267 37.1355 53.56C37.5422 53.3867 37.9855 53.3 38.4655 53.3C38.9455 53.3 39.3889 53.3867 39.7955 53.56C40.2022 53.7267 40.5555 53.9633 40.8555 54.27C41.1555 54.57 41.3889 54.9267 41.5555 55.34C41.7222 55.7533 41.8055 56.2067 41.8055 56.7C41.8055 57.1933 41.7222 57.6467 41.5555 58.06C41.3889 58.4733 41.1555 58.8333 40.8555 59.14C40.5555 59.44 40.2022 59.6767 39.7955 59.85C39.3889 60.0167 38.9455 60.1 38.4655 60.1ZM38.6755 59.6C39.1022 59.6 39.4755 59.4933 39.7955 59.28C40.1222 59.0667 40.3755 58.7667 40.5555 58.38C40.7422 57.9933 40.8355 57.5367 40.8355 57.01C40.8355 56.3633 40.7222 55.8 40.4955 55.32C40.2689 54.8333 39.9622 54.4567 39.5755 54.19C39.1955 53.9233 38.7689 53.79 38.2955 53.79C37.8689 53.79 37.4889 53.8967 37.1555 54.11C36.8289 54.3167 36.5722 54.6133 36.3855 55C36.1989 55.3867 36.1055 55.8433 36.1055 56.37C36.1055 57.0167 36.2189 57.5833 36.4455 58.07C36.6789 58.5567 36.9889 58.9333 37.3755 59.2C37.7622 59.4667 38.1955 59.6 38.6755 59.6ZM46.4543 60.1C45.9543 60.1 45.5076 60.0067 45.1143 59.82C44.7276 59.6333 44.421 59.3467 44.1943 58.96C43.9676 58.5667 43.8543 58.06 43.8543 57.44V53.96L43.0543 53.56V53.4H45.5543V53.56L44.7543 53.96V57.29C44.7543 57.8433 44.841 58.2833 45.0143 58.61C45.1876 58.9367 45.421 59.17 45.7143 59.31C46.0143 59.45 46.3476 59.52 46.7143 59.52C47.0076 59.52 47.2776 59.4567 47.5243 59.33C47.7776 59.2033 47.9776 59.0033 48.1243 58.73C48.2776 58.4567 48.3543 58.0933 48.3543 57.64V53.94L47.3543 53.56V53.4H49.8443V53.56L49.0543 53.95V57.44C49.0543 58.06 48.941 58.5667 48.7143 58.96C48.4876 59.3467 48.1776 59.6333 47.7843 59.82C47.3976 60.0067 46.9543 60.1 46.4543 60.1ZM51.0902 60V59.84L51.8902 59.44V53.98L51.1002 53.56V53.4H52.5702L56.3902 58.2V53.94L55.3902 53.56V53.4H57.8802V53.56L57.0902 53.95V60.05H56.7202L52.5902 54.84V59.45L53.5902 59.84V60H51.0902ZM58.5058 60V59.84L59.1458 59.51L61.7058 53.35H62.1558L64.6758 59.48L65.3458 59.84V60H62.8658V59.84L63.7458 59.5L62.9958 57.65H60.5658L59.8258 59.5L60.6658 59.84V60H58.5058ZM60.7958 57.1H62.7758L61.7858 54.64L60.7958 57.1Z" fill="white"/>
<rect x="187" y="51" width="69" height="12" fill="white"/>
<path d="M196.775 60V59.84L197.575 59.44V53.96L196.775 53.56V53.4H199.275V53.56L198.475 53.96V59.44L199.275 59.84V60H196.775ZM198.485 56.62L201.255 53.9L200.545 53.56V53.4H202.645V53.56L202.025 53.8L199.395 56.38L202.555 59.58L203.165 59.84V60H201.725L198.485 56.62ZM206.942 60.1C206.462 60.1 206.019 60.0167 205.612 59.85C205.212 59.6767 204.862 59.44 204.562 59.14C204.262 58.8333 204.029 58.4733 203.862 58.06C203.695 57.6467 203.612 57.1933 203.612 56.7C203.612 56.2067 203.695 55.7533 203.862 55.34C204.029 54.9267 204.262 54.57 204.562 54.27C204.862 53.9633 205.212 53.7267 205.612 53.56C206.019 53.3867 206.462 53.3 206.942 53.3C207.422 53.3 207.865 53.3867 208.272 53.56C208.679 53.7267 209.032 53.9633 209.332 54.27C209.632 54.57 209.865 54.9267 210.032 55.34C210.199 55.7533 210.282 56.2067 210.282 56.7C210.282 57.1933 210.199 57.6467 210.032 58.06C209.865 58.4733 209.632 58.8333 209.332 59.14C209.032 59.44 208.679 59.6767 208.272 59.85C207.865 60.0167 207.422 60.1 206.942 60.1ZM207.152 59.6C207.579 59.6 207.952 59.4933 208.272 59.28C208.599 59.0667 208.852 58.7667 209.032 58.38C209.219 57.9933 209.312 57.5367 209.312 57.01C209.312 56.3633 209.199 55.8 208.972 55.32C208.745 54.8333 208.439 54.4567 208.052 54.19C207.672 53.9233 207.245 53.79 206.772 53.79C206.345 53.79 205.965 53.8967 205.632 54.11C205.305 54.3167 205.049 54.6133 204.862 55C204.675 55.3867 204.582 55.8433 204.582 56.37C204.582 57.0167 204.695 57.5833 204.922 58.07C205.155 58.5567 205.465 58.9333 205.852 59.2C206.239 59.4667 206.672 59.6 207.152 59.6ZM211.579 60V59.84L212.379 59.44V53.98L211.589 53.56V53.4H213.059L216.879 58.2V53.94L215.879 53.56V53.4H218.369V53.56L217.579 53.95V60.05H217.209L213.079 54.84V59.45L214.079 59.84V60H211.579ZM218.994 60V59.84L219.634 59.51L222.194 53.35H222.644L225.164 59.48L225.834 59.84V60H223.354V59.84L224.234 59.5L223.484 57.65H221.054L220.314 59.5L221.154 59.84V60H218.994ZM221.284 57.1H223.264L222.274 54.64L221.284 57.1ZM226.814 60V59.84L227.614 59.44V53.96L226.814 53.56V53.4H229.314V53.56L228.514 53.96V59.44L229.314 59.84V60H226.814ZM228.524 56.62L231.294 53.9L230.584 53.56V53.4H232.684V53.56L232.064 53.8L229.434 56.38L232.594 59.58L233.204 59.84V60H231.764L228.524 56.62ZM234.002 60V59.84L234.802 59.44V53.96L234.002 53.56V53.4H238.892V55.12H238.732L238.112 53.95H235.702V56.32H237.402L237.902 55.49H238.062V57.68H237.902L237.402 56.87H235.702V59.45H238.392L239.012 58.18H239.172V60H234.002Z" fill="black"/>
<rect x="9" y="51" width="69" height="12" fill="white"/>
<path d="M20.6542 60V59.84L21.2942 59.51L23.8542 53.35H24.3042L26.8242 59.48L27.4942 59.84V60H25.0142V59.84L25.8942 59.5L25.1442 57.65H22.7142L21.9742 59.5L22.8142 59.84V60H20.6542ZM22.9442 57.1H24.9242L23.9342 54.64L22.9442 57.1ZM28.4742 60V59.84L29.2742 59.44V53.96L28.4742 53.56V53.4H31.0542C31.7542 53.4 32.3042 53.5467 32.7042 53.84C33.1109 54.1267 33.3142 54.5233 33.3142 55.03C33.3142 55.4033 33.1876 55.74 32.9342 56.04C32.6809 56.3333 32.3442 56.5567 31.9242 56.71L33.8242 59.48L34.4842 59.84V60H33.0442L31.1042 56.97H30.1742V59.43L30.9242 59.84V60H28.4742ZM30.8242 53.95H30.1742V56.42H30.8842C31.3042 56.42 31.6509 56.3033 31.9242 56.07C32.2042 55.83 32.3442 55.5267 32.3442 55.16C32.3442 54.7867 32.2076 54.4933 31.9342 54.28C31.6609 54.06 31.2909 53.95 30.8242 53.95ZM38.4655 60.1C37.9855 60.1 37.5422 60.0167 37.1355 59.85C36.7355 59.6767 36.3855 59.44 36.0855 59.14C35.7855 58.8333 35.5522 58.4733 35.3855 58.06C35.2189 57.6467 35.1355 57.1933 35.1355 56.7C35.1355 56.2067 35.2189 55.7533 35.3855 55.34C35.5522 54.9267 35.7855 54.57 36.0855 54.27C36.3855 53.9633 36.7355 53.7267 37.1355 53.56C37.5422 53.3867 37.9855 53.3 38.4655 53.3C38.9455 53.3 39.3889 53.3867 39.7955 53.56C40.2022 53.7267 40.5555 53.9633 40.8555 54.27C41.1555 54.57 41.3889 54.9267 41.5555 55.34C41.7222 55.7533 41.8055 56.2067 41.8055 56.7C41.8055 57.1933 41.7222 57.6467 41.5555 58.06C41.3889 58.4733 41.1555 58.8333 40.8555 59.14C40.5555 59.44 40.2022 59.6767 39.7955 59.85C39.3889 60.0167 38.9455 60.1 38.4655 60.1ZM38.6755 59.6C39.1022 59.6 39.4755 59.4933 39.7955 59.28C40.1222 59.0667 40.3755 58.7667 40.5555 58.38C40.7422 57.9933 40.8355 57.5367 40.8355 57.01C40.8355 56.3633 40.7222 55.8 40.4955 55.32C40.2689 54.8333 39.9622 54.4567 39.5755 54.19C39.1955 53.9233 38.7689 53.79 38.2955 53.79C37.8689 53.79 37.4889 53.8967 37.1555 54.11C36.8289 54.3167 36.5722 54.6133 36.3855 55C36.1989 55.3867 36.1055 55.8433 36.1055 56.37C36.1055 57.0167 36.2189 57.5833 36.4455 58.07C36.6789 58.5567 36.9889 58.9333 37.3755 59.2C37.7622 59.4667 38.1955 59.6 38.6755 59.6ZM46.4543 60.1C45.9543 60.1 45.5076 60.0067 45.1143 59.82C44.7276 59.6333 44.421 59.3467 44.1943 58.96C43.9676 58.5667 43.8543 58.06 43.8543 57.44V53.96L43.0543 53.56V53.4H45.5543V53.56L44.7543 53.96V57.29C44.7543 57.8433 44.841 58.2833 45.0143 58.61C45.1876 58.9367 45.421 59.17 45.7143 59.31C46.0143 59.45 46.3476 59.52 46.7143 59.52C47.0076 59.52 47.2776 59.4567 47.5243 59.33C47.7776 59.2033 47.9776 59.0033 48.1243 58.73C48.2776 58.4567 48.3543 58.0933 48.3543 57.64V53.94L47.3543 53.56V53.4H49.8443V53.56L49.0543 53.95V57.44C49.0543 58.06 48.941 58.5667 48.7143 58.96C48.4876 59.3467 48.1776 59.6333 47.7843 59.82C47.3976 60.0067 46.9543 60.1 46.4543 60.1ZM51.0902 60V59.84L51.8902 59.44V53.98L51.1002 53.56V53.4H52.5702L56.3902 58.2V53.94L55.3902 53.56V53.4H57.8802V53.56L57.0902 53.95V60.05H56.7202L52.5902 54.84V59.45L53.5902 59.84V60H51.0902ZM58.5058 60V59.84L59.1458 59.51L61.7058 53.35H62.1558L64.6758 59.48L65.3458 59.84V60H62.8658V59.84L63.7458 59.5L62.9958 57.65H60.5658L59.8258 59.5L60.6658 59.84V60H58.5058ZM60.7958 57.1H62.7758L61.7858 54.64L60.7958 57.1Z" fill="black"/>
<rect x="100" y="51" width="69" height="12" fill="white"/>
<path d="M110.582 60V59.84L111.222 59.51L113.782 53.35H114.232L116.752 59.48L117.422 59.84V60H114.942V59.84L115.822 59.5L115.072 57.65H112.642L111.902 59.5L112.742 59.84V60H110.582ZM112.872 57.1H114.852L113.862 54.64L112.872 57.1ZM118.352 60V59.84L119.142 59.44L119.352 53.97L118.492 53.56V53.4H120.342L122.652 58.72L124.952 53.4H126.712V53.56L125.872 53.96L126.042 59.44L126.742 59.84V60H124.442V59.84L125.182 59.45L125.082 54.52L122.692 60.05H122.242L119.892 54.59L119.762 59.45L120.572 59.84V60H118.352ZM127.672 60V59.84L128.312 59.51L130.872 53.35H131.322L133.842 59.48L134.512 59.84V60H132.032V59.84L132.912 59.5L132.162 57.65H129.732L128.992 59.5L129.832 59.84V60H127.672ZM129.962 57.1H131.942L130.952 54.64L129.962 57.1ZM135.492 60V59.84L136.292 59.44V53.96L135.492 53.56V53.4H138.422C139.155 53.4 139.782 53.53 140.302 53.79C140.822 54.05 141.215 54.4067 141.482 54.86C141.755 55.3133 141.892 55.8267 141.892 56.4C141.892 56.92 141.802 57.4 141.622 57.84C141.448 58.28 141.202 58.66 140.882 58.98C140.562 59.3 140.185 59.55 139.752 59.73C139.325 59.91 138.858 60 138.352 60H135.492ZM138.192 53.95H137.192V59.45H138.342C138.875 59.45 139.335 59.34 139.722 59.12C140.115 58.8933 140.415 58.5767 140.622 58.17C140.835 57.7567 140.942 57.27 140.942 56.71C140.942 56.1567 140.835 55.6733 140.622 55.26C140.408 54.84 140.095 54.5167 139.682 54.29C139.275 54.0633 138.778 53.95 138.192 53.95ZM146.723 60.1C146.243 60.1 145.8 60.0167 145.393 59.85C144.993 59.6767 144.643 59.44 144.343 59.14C144.043 58.8333 143.81 58.4733 143.643 58.06C143.477 57.6467 143.393 57.1933 143.393 56.7C143.393 56.2067 143.477 55.7533 143.643 55.34C143.81 54.9267 144.043 54.57 144.343 54.27C144.643 53.9633 144.993 53.7267 145.393 53.56C145.8 53.3867 146.243 53.3 146.723 53.3C147.203 53.3 147.647 53.3867 148.053 53.56C148.46 53.7267 148.813 53.9633 149.113 54.27C149.413 54.57 149.647 54.9267 149.813 55.34C149.98 55.7533 150.063 56.2067 150.063 56.7C150.063 57.1933 149.98 57.6467 149.813 58.06C149.647 58.4733 149.413 58.8333 149.113 59.14C148.813 59.44 148.46 59.6767 148.053 59.85C147.647 60.0167 147.203 60.1 146.723 60.1ZM146.933 59.6C147.36 59.6 147.733 59.4933 148.053 59.28C148.38 59.0667 148.633 58.7667 148.813 58.38C149 57.9933 149.093 57.5367 149.093 57.01C149.093 56.3633 148.98 55.8 148.753 55.32C148.527 54.8333 148.22 54.4567 147.833 54.19C147.453 53.9233 147.027 53.79 146.553 53.79C146.127 53.79 145.747 53.8967 145.413 54.11C145.087 54.3167 144.83 54.6133 144.643 55C144.457 55.3867 144.363 55.8433 144.363 56.37C144.363 57.0167 144.477 57.5833 144.703 58.07C144.937 58.5567 145.247 58.9333 145.633 59.2C146.02 59.4667 146.453 59.6 146.933 59.6ZM154.712 60.1C154.212 60.1 153.765 60.0067 153.372 59.82C152.985 59.6333 152.679 59.3467 152.452 58.96C152.225 58.5667 152.112 58.06 152.112 57.44V53.96L151.312 53.56V53.4H153.812V53.56L153.012 53.96V57.29C153.012 57.8433 153.099 58.2833 153.272 58.61C153.445 58.9367 153.679 59.17 153.972 59.31C154.272 59.45 154.605 59.52 154.972 59.52C155.265 59.52 155.535 59.4567 155.782 59.33C156.035 59.2033 156.235 59.0033 156.382 58.73C156.535 58.4567 156.612 58.0933 156.612 57.64V53.94L155.612 53.56V53.4H158.102V53.56L157.312 53.95V57.44C157.312 58.06 157.199 58.5667 156.972 58.96C156.745 59.3467 156.435 59.6333 156.042 59.82C155.655 60.0067 155.212 60.1 154.712 60.1Z" fill="black"/>
</svg>
